<svg id="visual" viewBox="0 0 900 600" width="900" height="600" xmlns="http://www.w3.org/2000/svg" xmlns:xlink="http://www.w3.org/1999/xlink" version="1.1"><path d="M0 412L25 418.3C50 424.7 100 437.3 150 443.5C200 449.7 250 449.3 300 444.8C350 440.3 400 431.7 450 430C500 428.3 550 433.7 600 440.3C650 447 700 455 750 452C800 449 850 435 875 428L900 421L900 601L875 601C850 601 800 601 750 601C700 601 650 601 600 601C550 601 500 601 450 601C400 601 350 601 300 601C250 601 200 601 150 601C100 601 50 601 25 601L0 601Z" fill="#fa7268"></path><path d="M0 496L25 488.8C50 481.7 100 467.3 150 463.3C200 459.3 250 465.7 300 471.8C350 478 400 484 450 488C500 492 550 494 600 490.8C650 487.7 700 479.3 750 476.2C800 473 850 475 875 476L900 477L900 601L875 601C850 601 800 601 750 601C700 601 650 601 600 601C550 601 500 601 450 601C400 601 350 601 300 601C250 601 200 601 150 601C100 601 50 601 25 601L0 601Z" fill="#eb5967"></path><path d="M0 531L25 528.2C50 525.3 100 519.7 150 520.3C200 521 250 528 300 525.3C350 522.7 400 510.3 450 504.5C500 498.7 550 499.3 600 504.5C650 509.7 700 519.3 750 524.7C800 530 850 531 875 531.5L900 532L900 601L875 601C850 601 800 601 750 601C700 601 650 601 600 601C550 601 500 601 450 601C400 601 350 601 300 601C250 601 200 601 150 601C100 601 50 601 25 601L0 601Z" fill="#da3f67"></path><path d="M0 540L25 543.2C50 546.3 100 552.7 150 557.5C200 562.3 250 565.7 300 563.2C350 560.7 400 552.3 450 549.7C500 547 550 550 600 551.7C650 553.3 700 553.7 750 551C800 548.3 850 542.7 875 539.8L900 537L900 601L875 601C850 601 800 601 750 601C700 601 650 601 600 601C550 601 500 601 450 601C400 601 350 601 300 601C250 601 200 601 150 601C100 601 50 601 25 601L0 601Z" fill="#c62368"></path></svg>